PathFileType	4	(X/Y/Z)	C:\Users\WrightLab\Desktop\Jo\P1.2Trial27.trc
DataRate	CameraRate	NumFrames	NumMarkers	Units	OrigDataRate	OrigDataStartFrame	OrigNumFrames
100.00	100.00	       81	19	mm	100.00	828	       946
Frame#	Time	Headset_Front			Headset_Back			Headset_Left			Headset_Right			Left_Shoulder			Right_Shoulder			Sternum			C7			Left Elbow			Right Elbow			Left Wrist			Right Wrist			Left ASIS			Right ASIS			S2			Left Knee			Right Knee			Left Ankle			Right Ankle			
		X1	Y1	Z1	X2	Y2	Z2	X3	Y3	Z3	X4	Y4	Z4	X5	Y5	Z5	X6	Y6	Z6	X7	Y7	Z7	X8	Y8	Z8	X9	Y9	Z9	X10	Y10	Z10	X11	Y11	Z11	X12	Y12	Z12	X13	Y13	Z13	X14	Y14	Z14	X15	Y15	Z15	X16	Y16	Z16	X17	Y17	Z17	X18	Y18	Z18	X19	Y19	Z19	

828	8.270																						-646.84912	1257.36292	-1327.06360				-433.86047	951.80853	-1135.40625				-315.32932	712.33099	-1115.87878							-680.24310	853.58038	-1298.22266				-352.62332	401.88657	-1405.78809				-367.73801	815.25891	-1376.35486	
829	8.280																						-641.96069	1259.19556	-1333.79883				-425.68604	952.65338	-1138.50317				-303.28699	714.18408	-1119.97705							-673.89874	853.77924	-1298.39636				-350.71774	400.75348	-1403.36658				-361.97260	815.15826	-1376.99768	
830	8.290																						-637.75104	1258.34705	-1334.16309				-417.60010	954.55157	-1141.76770				-291.79868	715.99451	-1127.76050							-669.96246	853.83429	-1299.52539				-348.74768	400.15381	-1402.41101				-352.87329	816.41943	-1381.11096	
831	8.300																						-633.03186	1257.99524	-1336.35632				-409.45557	954.88190	-1144.76892				-280.77139	717.91534	-1133.40833							-663.38715	853.90881	-1303.04224				-345.20123	400.25632	-1404.51758				-346.38278	817.77869	-1384.06421	
832	8.310																						-628.29236	1258.62695	-1341.02844				-401.13022	956.04767	-1150.50256				-269.91202	721.14447	-1139.43835							-660.00543	853.44104	-1308.62720				-342.88474	399.12912	-1401.53662				-337.93509	818.57465	-1386.40894	
833	8.320																						-623.63733	1259.27075	-1345.77478				-393.14093	957.60858	-1152.00537				-259.07086	723.89313	-1144.06555							-653.73383	854.28308	-1310.43311				-340.48886	399.64902	-1402.26477							
834	8.330																						-619.55927	1258.91321	-1347.76294				-385.17880	958.94922	-1151.99915				-247.65411	726.32733	-1151.31201							-649.97656	853.85382	-1316.21570				-338.40021	398.05515	-1398.92102							
835	8.340																						-615.76416	1259.23096	-1350.89587				-378.01715	960.86084	-1155.55493				-237.31261	729.76282	-1155.80408							-646.00940	853.97705	-1323.15344				-336.94507	397.23071	-1394.96265							
836	8.350																						-611.05011	1260.07776	-1356.71765				-370.65063	961.45166	-1158.49072				-225.81662	733.56555	-1162.65869							-640.62592	852.58691	-1326.66626				-334.46460	395.07919	-1395.45215							
837	8.360																						-606.93353	1260.35938	-1360.60718				-365.18466	963.47888	-1161.10217				-215.72615	737.22479	-1169.81335							-637.96191	852.97217	-1332.35364				-332.12262	395.29437	-1393.05786							
838	8.370																						-602.72040	1259.46667	-1362.16052				-356.91074	964.95520	-1164.10608				-205.37553	739.90503	-1176.57886							-632.77100	853.13739	-1337.09497				-330.19968	392.59723	-1388.18909							
839	8.380																						-599.16437	1260.59558	-1367.80090				-353.22015	966.36310	-1167.79651				-195.38942	743.83331	-1182.72791							-629.18646	853.00488	-1342.24817				-329.04272	391.72556	-1385.96118							
840	8.390																						-594.90283	1261.18542	-1373.27161				-345.91714	966.39935	-1173.95544				-186.32935	747.59497	-1188.75500							-625.46661	853.47400	-1348.50830				-325.98209	391.33621	-1385.22400							
841	8.400																						-590.65771	1260.73230	-1376.40515				-342.32147	968.43683	-1177.20081				-178.96620	751.70245	-1192.82568							-621.61523	853.53027	-1355.17493				-323.14578	390.74182	-1383.72510							
842	8.410																						-587.01154	1259.76880	-1377.92578				-336.72775	970.28699	-1176.23462				-169.97444	754.51514	-1199.91357							-616.39514	853.88068	-1362.12366				-321.50235	389.81067	-1381.41113							
843	8.420																						-583.12018	1260.81079	-1384.49426				-333.56787	969.70459	-1183.14990				-162.51808	758.77496	-1204.44690							-611.84613	854.40546	-1363.63818				-319.69183	389.07184	-1379.88599							
844	8.430																						-578.83746	1261.27307	-1390.40686				-329.93881	972.25049	-1182.83203				-155.95483	762.03375	-1209.70630							-609.67090	852.84735	-1376.23499				-317.73822	388.63226	-1378.44666							
845	8.440																						-574.55035	1260.71069	-1393.87439				-326.88281	974.34631	-1179.19690				-149.49825	765.59381	-1214.77454							-604.20630	852.24091	-1381.89429				-316.22971	387.98975	-1377.52344							
846	8.450																						-571.21045	1260.17761	-1396.54517				-325.35635	975.43146	-1181.81812				-144.16246	768.55688	-1218.04419							-601.18079	854.07550	-1384.81555				-314.25226	388.10480	-1377.64673							
847	8.460																						-566.68817	1262.08850	-1406.51746										-138.68822	772.12250	-1220.86316							-597.15973	853.22162	-1398.34827				-313.34589	388.06897	-1375.28992							
848	8.470																						-562.33112	1261.45386	-1410.32251										-135.27931	776.51001	-1224.36584							-593.70172	851.59717	-1406.84680				-311.53586	386.67734	-1376.54211							
849	8.480																						-557.85052	1260.74915	-1414.23096										-131.43680	778.89282	-1225.75293							-589.33252	852.79425	-1409.83972				-309.98511	387.02277	-1375.65161							
850	8.490																																		-126.80720	777.85376	-1236.83740							-585.45325	854.36346	-1415.25391				-309.41510	387.50247	-1375.28015							
851	8.500																																		-124.40688	782.08423	-1235.49463							-582.22028	852.94562	-1424.99597				-308.53256	387.13446	-1376.08142							
852	8.510																																		-123.25244	783.30145	-1237.09241							-578.23389	851.71051	-1435.53894				-307.70154	387.36304	-1375.81726							
853	8.520																																		-120.55293	781.12170	-1246.97314							-573.27350	851.61682	-1440.92566				-305.88028	387.26846	-1377.52417							
854	8.530																																		-119.62721	784.32941	-1249.66223							-569.25391	853.28650	-1445.83118				-303.39676	387.03436	-1380.07898							
855	8.540																																		-119.54655	785.09747	-1249.24597							-566.25067	852.79889	-1453.87048				-302.91193	386.87341	-1379.99829							
856	8.550																																		-119.64743	785.69153	-1251.14905							-561.82660	852.60388	-1459.70447				-301.60629	386.36026	-1380.58240							
857	8.560																																		-120.59250	785.31909	-1253.86633							-556.58264	852.75903	-1464.76672				-300.55930	386.46747	-1381.43384							
858	8.570																																		-121.49953	782.48767	-1262.88403							-554.14148	854.77057	-1467.33215				-299.02704	386.15802	-1381.73950							
859	8.580																																		-122.92205	782.55835	-1263.48389							-549.21210	853.84930	-1474.75696				-297.48193	386.44922	-1381.04333							
860	8.590																																		-123.11356	782.26367	-1264.70081							-542.99823	851.85254	-1484.24060				-295.62518	385.77905	-1382.52686							
861	8.600																																		-125.77239	783.72882	-1259.03125							-538.04822	849.64685	-1497.57886				-293.30252	385.56247	-1383.81775							
862	8.610																																		-127.73387	781.40900	-1261.66028							-532.55109	851.29144	-1501.09082				-291.62769	385.29959	-1383.42200							
863	8.620																																		-130.21841	776.55261	-1267.54932							-527.32556	850.13959	-1507.39136				-290.18875	384.30249	-1383.94873							
864	8.630																																		-133.37993	777.13739	-1261.77673							-521.19379	848.32947	-1520.92590				-286.51035	384.63879	-1385.36389							
865	8.640																																		-135.90474	775.65778	-1264.01477							-516.22278	848.51288	-1519.05420				-284.42279	383.66928	-1386.50940							
866	8.650																																		-141.46790	770.92957	-1264.22742							-510.45016	850.74567	-1524.71143				-281.06381	383.62241	-1388.75610							
867	8.660																																		-145.55476	770.68341	-1255.88965							-504.54187	850.24048	-1530.54016				-280.27460	383.57056	-1388.13843							
868	8.670																																		-150.43501	763.73169	-1264.99780													-277.75919	383.25659	-1389.35742							
869	8.680																																		-156.06773	762.51849	-1256.94263													-274.65771	382.66769	-1390.25134							
870	8.690																																		-163.17551	756.62830	-1256.39355													-274.40057	382.52206	-1390.69592							
871	8.700																																		-170.74867	755.30780	-1254.41223													-271.79181	381.88000	-1395.89099							
872	8.710																																		-177.43822	751.97693	-1248.14685																						
873	8.720																																		-185.58917	747.59039	-1246.10742																						
874	8.730																																		-194.36763	744.44897	-1243.13550																						
875	8.740																																		-203.20508	737.94324	-1244.79492																						
876	8.750																																		-213.36099	735.74683	-1238.39160																						
877	8.760																																		-222.99794	732.62299	-1238.40894																						
878	8.770																																		-233.40378	729.59131	-1234.36560																						
879	8.780																																		-244.23070	728.82996	-1228.52551																						
880	8.790																																		-256.42258	726.85303	-1221.09363																						
881	8.800																																		-268.12567	726.40881	-1221.58655																						
882	8.810																																		-281.21957	725.71552	-1222.54968																						
883	8.820																																		-294.30151	725.34943	-1217.39978																						
884	8.830																																		-308.31949	726.36768	-1217.89966																						
885	8.840																																		-322.14005	729.48767	-1215.24536																						
886	8.850																																		-337.73685	731.06549	-1217.94263																						
887	8.860																																		-352.48566	733.86603	-1222.16589																						
888	8.870																																		-367.58047	736.06158	-1226.80518																						
889	8.880																																		-383.26016	738.11938	-1233.19470																						
890	8.890																																		-397.52991	740.45026	-1241.74231																						
891	8.900																																		-410.88004	742.94104	-1248.53162																						
892	8.910																																		-423.73038	745.77246	-1258.65234																						
893	8.920																																		-434.53552	747.46112	-1268.12036																						
894	8.930																																		-444.57532	751.04688	-1277.24292																						
895	8.940																																		-453.30212	751.96014	-1289.15100																						
896	8.950																																		-460.10065	755.88867	-1296.96838																						
897	8.960																																		-466.30783	753.38177	-1318.48669																						
898	8.970																																		-470.75778	758.10785	-1321.09570																						
899	8.980																																		-474.31058	759.89807	-1332.03479																						
900	8.990																																		-478.17255	760.65082	-1340.68774																						
901	9.000																																		-481.18372	763.54803	-1350.42407																						
902	9.010																																		-485.12653	765.27679	-1357.03442																						
903	9.020																																		-487.46103	768.29669	-1366.07361																						
904	9.030																																		-489.88708	769.73523	-1372.61670																						
905	9.040																																		-493.81076	768.70264	-1382.79480																						
906	9.050																																		-494.42331	773.14203	-1387.89417																						
907	9.060																																		-496.36435	774.01538	-1394.04810																						
908	9.070																																		-500.23849	772.93762	-1406.63708																						
